<svg xmlns="http://www.w3.org/2000/svg" viewBox="0 0 960 640" role="img" aria-label="About hero illustration">
  <defs>
    <linearGradient id="aboutBg" x1="0%" y1="0%" x2="100%" y2="100%">
      <stop offset="0%" stop-color="#1d4ed8"/>
      <stop offset="52%" stop-color="#1e40af"/>
      <stop offset="100%" stop-color="#0f172a"/>
    </linearGradient>
    <linearGradient id="glass" x1="0%" y1="0%" x2="100%" y2="100%">
      <stop offset="0%" stop-color="#ffffff" stop-opacity="0.35"/>
      <stop offset="100%" stop-color="#ffffff" stop-opacity="0.06"/>
    </linearGradient>
  </defs>

  <rect width="960" height="640" fill="url(#aboutBg)"/>
  <circle cx="160" cy="100" r="120" fill="#93c5fd" fill-opacity="0.15"/>
  <circle cx="860" cy="560" r="140" fill="#67e8f9" fill-opacity="0.15"/>

  <g>
    <rect x="90" y="90" width="350" height="220" rx="26" fill="url(#glass)" stroke="#dbeafe" stroke-opacity="0.45"/>
    <circle cx="146" cy="142" r="22" fill="#bfdbfe"/>
    <rect x="180" y="126" width="190" height="18" rx="9" fill="#e0f2fe"/>
    <rect x="180" y="160" width="140" height="14" rx="7" fill="#c7d2fe"/>
    <rect x="128" y="200" width="274" height="78" rx="16" fill="#f8fafc" fill-opacity="0.92"/>
    <rect x="148" y="222" width="112" height="14" rx="7" fill="#2563eb"/>
    <rect x="148" y="248" width="164" height="12" rx="6" fill="#64748b"/>
  </g>

  <g>
    <rect x="510" y="140" width="360" height="240" rx="28" fill="url(#glass)" stroke="#dbeafe" stroke-opacity="0.45"/>
    <rect x="548" y="180" width="284" height="48" rx="14" fill="#f8fafc" fill-opacity="0.94"/>
    <rect x="548" y="248" width="120" height="112" rx="16" fill="#bfdbfe"/>
    <rect x="686" y="248" width="146" height="48" rx="14" fill="#dbeafe"/>
    <rect x="686" y="312" width="146" height="48" rx="14" fill="#e2e8f0"/>
    <path d="M588 303h40m-20-20v40" stroke="#1d4ed8" stroke-width="10" stroke-linecap="round"/>
  </g>
</svg>
