<svg xmlns="http://www.w3.org/2000/svg" viewBox="0 0 960 640" role="img" aria-label="About workflow illustration">
  <defs>
    <linearGradient id="flowBg" x1="0%" y1="0%" x2="100%" y2="100%">
      <stop offset="0%" stop-color="#eff6ff"/>
      <stop offset="55%" stop-color="#dbeafe"/>
      <stop offset="100%" stop-color="#e2e8f0"/>
    </linearGradient>
  </defs>
  <rect width="960" height="640" fill="url(#flowBg)"/>
  <circle cx="140" cy="540" r="90" fill="#bfdbfe"/>
  <circle cx="860" cy="120" r="80" fill="#c7d2fe"/>

  <g>
    <rect x="170" y="110" width="620" height="120" rx="24" fill="#ffffff" stroke="#bfdbfe" stroke-width="3"/>
    <circle cx="228" cy="170" r="24" fill="#2563eb"/>
    <path d="M220 170l7 7 13-14" stroke="#fff" stroke-width="5" fill="none" stroke-linecap="round" stroke-linejoin="round"/>
    <rect x="270" y="150" width="220" height="16" rx="8" fill="#1d4ed8"/>
    <rect x="270" y="176" width="360" height="12" rx="6" fill="#64748b"/>
  </g>

  <g>
    <rect x="170" y="270" width="620" height="120" rx="24" fill="#ffffff" stroke="#bfdbfe" stroke-width="3"/>
    <circle cx="228" cy="330" r="24" fill="#2563eb"/>
    <path d="M220 330l7 7 13-14" stroke="#fff" stroke-width="5" fill="none" stroke-linecap="round" stroke-linejoin="round"/>
    <rect x="270" y="310" width="260" height="16" rx="8" fill="#1d4ed8"/>
    <rect x="270" y="336" width="320" height="12" rx="6" fill="#64748b"/>
  </g>

  <g>
    <rect x="170" y="430" width="620" height="120" rx="24" fill="#ffffff" stroke="#bfdbfe" stroke-width="3"/>
    <circle cx="228" cy="490" r="24" fill="#2563eb"/>
    <path d="M220 490l7 7 13-14" stroke="#fff" stroke-width="5" fill="none" stroke-linecap="round" stroke-linejoin="round"/>
    <rect x="270" y="470" width="300" height="16" rx="8" fill="#1d4ed8"/>
    <rect x="270" y="496" width="250" height="12" rx="6" fill="#64748b"/>
  </g>
</svg>
