<svg xmlns="http://www.w3.org/2000/svg" viewBox="0 0 960 640" role="img" aria-label="Support FAQ illustration">
  <defs>
    <linearGradient id="faqBg" x1="0%" y1="0%" x2="100%" y2="100%">
      <stop offset="0%" stop-color="#eff6ff"/>
      <stop offset="55%" stop-color="#dbeafe"/>
      <stop offset="100%" stop-color="#e2e8f0"/>
    </linearGradient>
  </defs>
  <rect width="960" height="640" fill="url(#faqBg)"/>
  <circle cx="860" cy="550" r="95" fill="#bfdbfe"/>
  <circle cx="100" cy="120" r="80" fill="#c7d2fe"/>

  <g>
    <rect x="150" y="100" width="660" height="90" rx="18" fill="#ffffff" stroke="#bfdbfe" stroke-width="3"/>
    <circle cx="202" cy="145" r="20" fill="#2563eb"/>
    <path d="M202 136a12 12 0 1 1-10 19m10 11v1" stroke="#fff" stroke-width="4" fill="none" stroke-linecap="round"/>
    <rect x="238" y="136" width="320" height="14" rx="7" fill="#1e293b"/>
  </g>

  <g>
    <rect x="150" y="225" width="660" height="90" rx="18" fill="#ffffff" stroke="#bfdbfe" stroke-width="3"/>
    <circle cx="202" cy="270" r="20" fill="#2563eb"/>
    <path d="M202 261a12 12 0 1 1-10 19m10 11v1" stroke="#fff" stroke-width="4" fill="none" stroke-linecap="round"/>
    <rect x="238" y="261" width="380" height="14" rx="7" fill="#1e293b"/>
  </g>

  <g>
    <rect x="150" y="350" width="660" height="90" rx="18" fill="#ffffff" stroke="#bfdbfe" stroke-width="3"/>
    <circle cx="202" cy="395" r="20" fill="#2563eb"/>
    <path d="M202 386a12 12 0 1 1-10 19m10 11v1" stroke="#fff" stroke-width="4" fill="none" stroke-linecap="round"/>
    <rect x="238" y="386" width="330" height="14" rx="7" fill="#1e293b"/>
  </g>

  <g>
    <rect x="150" y="475" width="660" height="90" rx="18" fill="#ffffff" stroke="#bfdbfe" stroke-width="3"/>
    <circle cx="202" cy="520" r="20" fill="#2563eb"/>
    <path d="M202 511a12 12 0 1 1-10 19m10 11v1" stroke="#fff" stroke-width="4" fill="none" stroke-linecap="round"/>
    <rect x="238" y="511" width="350" height="14" rx="7" fill="#1e293b"/>
  </g>
</svg>
