<svg xmlns="http://www.w3.org/2000/svg" viewBox="0 0 960 640" role="img" aria-label="Support hero illustration">
  <defs>
    <linearGradient id="supportBg" x1="0%" y1="0%" x2="100%" y2="100%">
      <stop offset="0%" stop-color="#dbeafe"/>
      <stop offset="48%" stop-color="#93c5fd"/>
      <stop offset="100%" stop-color="#1e293b"/>
    </linearGradient>
  </defs>
  <rect width="960" height="640" fill="url(#supportBg)"/>
  <circle cx="860" cy="90" r="95" fill="#fff" fill-opacity="0.25"/>
  <circle cx="80" cy="560" r="100" fill="#67e8f9" fill-opacity="0.22"/>

  <g>
    <rect x="100" y="110" width="350" height="190" rx="24" fill="#ffffff" fill-opacity="0.92"/>
    <circle cx="162" cy="168" r="24" fill="#2563eb"/>
    <path d="M162 152c15 0 27 12 27 27h-10c0-9-8-17-17-17s-17 8-17 17h-10c0-15 12-27 27-27zM142 191h40" stroke="#fff" stroke-width="4" fill="none" stroke-linecap="round"/>
    <rect x="202" y="154" width="190" height="16" rx="8" fill="#1e293b"/>
    <rect x="202" y="180" width="140" height="12" rx="6" fill="#64748b"/>
    <rect x="134" y="220" width="258" height="50" rx="14" fill="#eff6ff"/>
    <rect x="152" y="238" width="140" height="12" rx="6" fill="#2563eb"/>
  </g>

  <g>
    <rect x="510" y="210" width="350" height="220" rx="26" fill="#ffffff" fill-opacity="0.92"/>
    <rect x="548" y="248" width="274" height="42" rx="13" fill="#dbeafe"/>
    <rect x="548" y="306" width="274" height="42" rx="13" fill="#e2e8f0"/>
    <rect x="548" y="364" width="180" height="30" rx="10" fill="#bfdbfe"/>
    <circle cx="800" cy="379" r="16" fill="#2563eb"/>
    <path d="M792 379h16m-8-8v16" stroke="#fff" stroke-width="3" stroke-linecap="round"/>
  </g>
</svg>
